<mxfile host="app.diagrams.net" modified="2023-05-07T06:05:11.097Z" agent="Mozilla/5.0 (Windows NT 10.0; WOW64) AppleWebKit/537.36 (KHTML, like Gecko) Chrome/94.0.4606.71 Safari/537.36 Core/1.94.192.400 QQBrowser/11.5.5250.400" etag="THu1gvbYaqKsTvPH5Hlh" version="21.2.1" type="github">
  <diagram name="第 1 页" id="AthDMhiANdLiVvKoCADB">
    <mxGraphModel dx="873" dy="459" grid="1" gridSize="10" guides="1" tooltips="1" connect="1" arrows="1" fold="1" page="1" pageScale="1" pageWidth="827" pageHeight="1169" math="0" shadow="0">
      <root>
        <mxCell id="0" />
        <mxCell id="1" parent="0" />
        <mxCell id="Uxrtn1q4JynT5MzSL2tQ-48" value="concat&amp;nbsp; &amp;nbsp; &amp;nbsp; &amp;nbsp; &amp;nbsp; &amp;nbsp; &amp;nbsp; &amp;nbsp; &amp;nbsp; &amp;nbsp; &amp;nbsp; &amp;nbsp; &amp;nbsp; &amp;nbsp; &amp;nbsp; &amp;nbsp; &amp;nbsp; &amp;nbsp; &amp;nbsp; &amp;nbsp;" style="rounded=1;whiteSpace=wrap;html=1;fillColor=none;dashed=1;" vertex="1" parent="1">
          <mxGeometry x="130" y="230" width="180" height="50" as="geometry" />
        </mxCell>
        <mxCell id="Uxrtn1q4JynT5MzSL2tQ-1" value="Linear + ReLu" style="rounded=0;whiteSpace=wrap;html=1;fillColor=#dae8fc;strokeColor=#6c8ebf;" vertex="1" parent="1">
          <mxGeometry x="120" y="430" width="110" height="30" as="geometry" />
        </mxCell>
        <mxCell id="Uxrtn1q4JynT5MzSL2tQ-2" value="Linear + ReLu" style="rounded=0;whiteSpace=wrap;html=1;fillColor=#fff2cc;strokeColor=#d6b656;" vertex="1" parent="1">
          <mxGeometry x="410" y="430" width="110" height="30" as="geometry" />
        </mxCell>
        <mxCell id="Uxrtn1q4JynT5MzSL2tQ-3" value="Linear + ReLu" style="rounded=0;whiteSpace=wrap;html=1;fillColor=#7EA6E0;strokeColor=#6c8ebf;" vertex="1" parent="1">
          <mxGeometry x="250" y="430" width="110" height="30" as="geometry" />
        </mxCell>
        <mxCell id="Uxrtn1q4JynT5MzSL2tQ-4" value="Linear + ReLu" style="rounded=0;whiteSpace=wrap;html=1;fillColor=#FFD966;strokeColor=#d6b656;" vertex="1" parent="1">
          <mxGeometry x="540" y="430" width="110" height="30" as="geometry" />
        </mxCell>
        <mxCell id="Uxrtn1q4JynT5MzSL2tQ-5" value="&lt;font style=&quot;font-size: 15px;&quot;&gt;Item embedding&lt;/font&gt;" style="rounded=0;whiteSpace=wrap;html=1;" vertex="1" parent="1">
          <mxGeometry x="120" y="480" width="240" height="30" as="geometry" />
        </mxCell>
        <mxCell id="Uxrtn1q4JynT5MzSL2tQ-6" value="&lt;font style=&quot;font-size: 15px;&quot;&gt;User embedding&lt;/font&gt;" style="rounded=0;whiteSpace=wrap;html=1;" vertex="1" parent="1">
          <mxGeometry x="410" y="480" width="240" height="30" as="geometry" />
        </mxCell>
        <mxCell id="Uxrtn1q4JynT5MzSL2tQ-7" value="" style="endArrow=none;html=1;rounded=0;endFill=0;" edge="1" parent="1">
          <mxGeometry width="50" height="50" relative="1" as="geometry">
            <mxPoint x="209.8" y="480" as="sourcePoint" />
            <mxPoint x="209.8" y="460" as="targetPoint" />
          </mxGeometry>
        </mxCell>
        <mxCell id="Uxrtn1q4JynT5MzSL2tQ-8" value="" style="endArrow=none;html=1;rounded=0;endFill=0;" edge="1" parent="1">
          <mxGeometry width="50" height="50" relative="1" as="geometry">
            <mxPoint x="269.84" y="480" as="sourcePoint" />
            <mxPoint x="269.84" y="460" as="targetPoint" />
          </mxGeometry>
        </mxCell>
        <mxCell id="Uxrtn1q4JynT5MzSL2tQ-9" value="" style="endArrow=none;html=1;rounded=0;endFill=0;" edge="1" parent="1">
          <mxGeometry width="50" height="50" relative="1" as="geometry">
            <mxPoint x="499.86" y="480" as="sourcePoint" />
            <mxPoint x="500.06" y="460" as="targetPoint" />
          </mxGeometry>
        </mxCell>
        <mxCell id="Uxrtn1q4JynT5MzSL2tQ-10" value="" style="endArrow=none;html=1;rounded=0;endFill=0;" edge="1" parent="1">
          <mxGeometry width="50" height="50" relative="1" as="geometry">
            <mxPoint x="559.8599999999999" y="480" as="sourcePoint" />
            <mxPoint x="560.06" y="460" as="targetPoint" />
          </mxGeometry>
        </mxCell>
        <mxCell id="Uxrtn1q4JynT5MzSL2tQ-11" value="L + R" style="rounded=0;whiteSpace=wrap;html=1;fillColor=#dae8fc;strokeColor=#6c8ebf;" vertex="1" parent="1">
          <mxGeometry x="150" y="380" width="80" height="30" as="geometry" />
        </mxCell>
        <mxCell id="Uxrtn1q4JynT5MzSL2tQ-12" value="L + R" style="rounded=0;whiteSpace=wrap;html=1;fillColor=#fff2cc;strokeColor=#d6b656;" vertex="1" parent="1">
          <mxGeometry x="440" y="380" width="80" height="30" as="geometry" />
        </mxCell>
        <mxCell id="Uxrtn1q4JynT5MzSL2tQ-13" value="L + R" style="rounded=0;whiteSpace=wrap;html=1;fillColor=#7EA6E0;strokeColor=#6c8ebf;" vertex="1" parent="1">
          <mxGeometry x="250" y="380" width="80" height="30" as="geometry" />
        </mxCell>
        <mxCell id="Uxrtn1q4JynT5MzSL2tQ-14" value="L + R" style="rounded=0;whiteSpace=wrap;html=1;fillColor=#FFD966;strokeColor=#d6b656;" vertex="1" parent="1">
          <mxGeometry x="540" y="380" width="80" height="30" as="geometry" />
        </mxCell>
        <mxCell id="Uxrtn1q4JynT5MzSL2tQ-15" value="" style="endArrow=none;html=1;rounded=0;endFill=0;" edge="1" parent="1">
          <mxGeometry width="50" height="50" relative="1" as="geometry">
            <mxPoint x="209.8" y="430" as="sourcePoint" />
            <mxPoint x="209.94" y="410" as="targetPoint" />
          </mxGeometry>
        </mxCell>
        <mxCell id="Uxrtn1q4JynT5MzSL2tQ-16" value="" style="endArrow=none;html=1;rounded=0;endFill=0;" edge="1" parent="1">
          <mxGeometry width="50" height="50" relative="1" as="geometry">
            <mxPoint x="269.84" y="430" as="sourcePoint" />
            <mxPoint x="269.97999999999996" y="410" as="targetPoint" />
          </mxGeometry>
        </mxCell>
        <mxCell id="Uxrtn1q4JynT5MzSL2tQ-17" value="" style="endArrow=none;html=1;rounded=0;endFill=0;" edge="1" parent="1">
          <mxGeometry width="50" height="50" relative="1" as="geometry">
            <mxPoint x="499.86" y="430" as="sourcePoint" />
            <mxPoint x="500" y="410" as="targetPoint" />
          </mxGeometry>
        </mxCell>
        <mxCell id="Uxrtn1q4JynT5MzSL2tQ-18" value="" style="endArrow=none;html=1;rounded=0;endFill=0;" edge="1" parent="1">
          <mxGeometry width="50" height="50" relative="1" as="geometry">
            <mxPoint x="559.8599999999999" y="430" as="sourcePoint" />
            <mxPoint x="560" y="410" as="targetPoint" />
          </mxGeometry>
        </mxCell>
        <mxCell id="Uxrtn1q4JynT5MzSL2tQ-19" value="L + R" style="rounded=0;whiteSpace=wrap;html=1;fillColor=#dae8fc;strokeColor=#6c8ebf;" vertex="1" parent="1">
          <mxGeometry x="170" y="330" width="60" height="30" as="geometry" />
        </mxCell>
        <mxCell id="Uxrtn1q4JynT5MzSL2tQ-20" value="L + R" style="rounded=0;whiteSpace=wrap;html=1;fillColor=#7EA6E0;strokeColor=#6c8ebf;" vertex="1" parent="1">
          <mxGeometry x="250" y="330" width="60" height="30" as="geometry" />
        </mxCell>
        <mxCell id="Uxrtn1q4JynT5MzSL2tQ-21" value="" style="endArrow=none;html=1;rounded=0;endFill=0;" edge="1" parent="1">
          <mxGeometry width="50" height="50" relative="1" as="geometry">
            <mxPoint x="209.52" y="380" as="sourcePoint" />
            <mxPoint x="209.66" y="360" as="targetPoint" />
          </mxGeometry>
        </mxCell>
        <mxCell id="Uxrtn1q4JynT5MzSL2tQ-22" value="" style="endArrow=none;html=1;rounded=0;endFill=0;" edge="1" parent="1">
          <mxGeometry width="50" height="50" relative="1" as="geometry">
            <mxPoint x="269.84" y="380" as="sourcePoint" />
            <mxPoint x="269.97999999999996" y="360" as="targetPoint" />
          </mxGeometry>
        </mxCell>
        <mxCell id="Uxrtn1q4JynT5MzSL2tQ-23" value="" style="endArrow=none;html=1;rounded=0;endFill=0;" edge="1" parent="1">
          <mxGeometry width="50" height="50" relative="1" as="geometry">
            <mxPoint x="499.86" y="380" as="sourcePoint" />
            <mxPoint x="500" y="360" as="targetPoint" />
          </mxGeometry>
        </mxCell>
        <mxCell id="Uxrtn1q4JynT5MzSL2tQ-24" value="" style="endArrow=none;html=1;rounded=0;endFill=0;" edge="1" parent="1">
          <mxGeometry width="50" height="50" relative="1" as="geometry">
            <mxPoint x="559.8599999999999" y="380" as="sourcePoint" />
            <mxPoint x="560" y="360" as="targetPoint" />
          </mxGeometry>
        </mxCell>
        <mxCell id="Uxrtn1q4JynT5MzSL2tQ-25" value="dot product for CTR" style="rounded=1;whiteSpace=wrap;html=1;" vertex="1" parent="1">
          <mxGeometry x="80" y="290" width="70" height="30" as="geometry" />
        </mxCell>
        <mxCell id="Uxrtn1q4JynT5MzSL2tQ-26" value="dot product for Final Score" style="rounded=1;whiteSpace=wrap;html=1;" vertex="1" parent="1">
          <mxGeometry x="340" y="170" width="90" height="30" as="geometry" />
        </mxCell>
        <mxCell id="Uxrtn1q4JynT5MzSL2tQ-28" value="L + R" style="rounded=0;whiteSpace=wrap;html=1;fillColor=#fff2cc;strokeColor=#d6b656;" vertex="1" parent="1">
          <mxGeometry x="460" y="330" width="60" height="30" as="geometry" />
        </mxCell>
        <mxCell id="Uxrtn1q4JynT5MzSL2tQ-29" value="L + R" style="rounded=0;whiteSpace=wrap;html=1;fillColor=#FFD966;strokeColor=#d6b656;" vertex="1" parent="1">
          <mxGeometry x="540" y="330" width="60" height="30" as="geometry" />
        </mxCell>
        <mxCell id="Uxrtn1q4JynT5MzSL2tQ-30" value="&amp;nbsp; &amp;nbsp; &amp;nbsp; &amp;nbsp; &amp;nbsp; &amp;nbsp; &amp;nbsp; &amp;nbsp; &amp;nbsp; &amp;nbsp; &amp;nbsp; &amp;nbsp; &amp;nbsp; &amp;nbsp; &amp;nbsp; &amp;nbsp; &amp;nbsp; &amp;nbsp; &amp;nbsp; &amp;nbsp; &amp;nbsp;concat&amp;nbsp;" style="rounded=1;whiteSpace=wrap;html=1;fillColor=none;dashed=1;" vertex="1" parent="1">
          <mxGeometry x="460" y="230" width="180" height="50" as="geometry" />
        </mxCell>
        <mxCell id="Uxrtn1q4JynT5MzSL2tQ-34" value="" style="endArrow=classicThin;html=1;rounded=0;exitX=0.5;exitY=0;exitDx=0;exitDy=0;endFill=1;entryX=1;entryY=0.5;entryDx=0;entryDy=0;" edge="1" parent="1" source="Uxrtn1q4JynT5MzSL2tQ-19" target="Uxrtn1q4JynT5MzSL2tQ-25">
          <mxGeometry width="50" height="50" relative="1" as="geometry">
            <mxPoint x="160" y="265" as="sourcePoint" />
            <mxPoint x="115" y="320" as="targetPoint" />
          </mxGeometry>
        </mxCell>
        <mxCell id="Uxrtn1q4JynT5MzSL2tQ-35" value="" style="endArrow=classicThin;html=1;rounded=0;entryX=1;entryY=0.5;entryDx=0;entryDy=0;endFill=1;exitX=0.5;exitY=0;exitDx=0;exitDy=0;" edge="1" parent="1" source="Uxrtn1q4JynT5MzSL2tQ-28" target="Uxrtn1q4JynT5MzSL2tQ-25">
          <mxGeometry width="50" height="50" relative="1" as="geometry">
            <mxPoint x="410" y="320" as="sourcePoint" />
            <mxPoint x="270" y="275" as="targetPoint" />
          </mxGeometry>
        </mxCell>
        <mxCell id="Uxrtn1q4JynT5MzSL2tQ-36" value="L + R" style="rounded=0;whiteSpace=wrap;html=1;fillColor=#dae8fc;strokeColor=#6c8ebf;" vertex="1" parent="1">
          <mxGeometry x="180" y="170" width="60" height="30" as="geometry" />
        </mxCell>
        <mxCell id="Uxrtn1q4JynT5MzSL2tQ-37" value="L + R" style="rounded=0;whiteSpace=wrap;html=1;fillColor=#7EA6E0;strokeColor=#6c8ebf;" vertex="1" parent="1">
          <mxGeometry x="240" y="170" width="60" height="30" as="geometry" />
        </mxCell>
        <mxCell id="Uxrtn1q4JynT5MzSL2tQ-38" value="L + R" style="rounded=0;whiteSpace=wrap;html=1;fillColor=#fff2cc;strokeColor=#d6b656;" vertex="1" parent="1">
          <mxGeometry x="470" y="240" width="60" height="30" as="geometry" />
        </mxCell>
        <mxCell id="Uxrtn1q4JynT5MzSL2tQ-39" value="L + R" style="rounded=0;whiteSpace=wrap;html=1;fillColor=#FFD966;strokeColor=#d6b656;" vertex="1" parent="1">
          <mxGeometry x="530" y="240" width="60" height="30" as="geometry" />
        </mxCell>
        <mxCell id="Uxrtn1q4JynT5MzSL2tQ-40" value="" style="endArrow=none;html=1;rounded=0;entryX=0.447;entryY=1.017;entryDx=0;entryDy=0;entryPerimeter=0;endFill=0;" edge="1" parent="1">
          <mxGeometry width="50" height="50" relative="1" as="geometry">
            <mxPoint x="269.83000000000004" y="330" as="sourcePoint" />
            <mxPoint x="269.94" y="281" as="targetPoint" />
          </mxGeometry>
        </mxCell>
        <mxCell id="Uxrtn1q4JynT5MzSL2tQ-41" value="" style="endArrow=none;html=1;rounded=0;entryX=0.447;entryY=1.017;entryDx=0;entryDy=0;entryPerimeter=0;dashed=1;dashPattern=1 2;endFill=0;" edge="1" parent="1">
          <mxGeometry width="50" height="50" relative="1" as="geometry">
            <mxPoint x="499.83" y="329" as="sourcePoint" />
            <mxPoint x="499.94" y="280" as="targetPoint" />
          </mxGeometry>
        </mxCell>
        <mxCell id="Uxrtn1q4JynT5MzSL2tQ-42" value="" style="endArrow=none;html=1;rounded=0;entryX=0.447;entryY=1.017;entryDx=0;entryDy=0;entryPerimeter=0;endFill=0;" edge="1" parent="1">
          <mxGeometry width="50" height="50" relative="1" as="geometry">
            <mxPoint x="559.83" y="330" as="sourcePoint" />
            <mxPoint x="559.94" y="281" as="targetPoint" />
          </mxGeometry>
        </mxCell>
        <mxCell id="Uxrtn1q4JynT5MzSL2tQ-43" value="" style="endArrow=none;html=1;rounded=0;entryX=0.447;entryY=1.017;entryDx=0;entryDy=0;entryPerimeter=0;dashed=1;dashPattern=1 2;endFill=0;" edge="1" parent="1">
          <mxGeometry width="50" height="50" relative="1" as="geometry">
            <mxPoint x="209.83" y="330" as="sourcePoint" />
            <mxPoint x="209.94" y="281" as="targetPoint" />
          </mxGeometry>
        </mxCell>
        <mxCell id="Uxrtn1q4JynT5MzSL2tQ-44" value="" style="endArrow=classicThin;html=1;rounded=0;entryX=0;entryY=0.5;entryDx=0;entryDy=0;exitX=1;exitY=0.5;exitDx=0;exitDy=0;endFill=1;" edge="1" parent="1" source="Uxrtn1q4JynT5MzSL2tQ-37" target="Uxrtn1q4JynT5MzSL2tQ-26">
          <mxGeometry width="50" height="50" relative="1" as="geometry">
            <mxPoint x="310" y="185" as="sourcePoint" />
            <mxPoint x="305" y="160" as="targetPoint" />
          </mxGeometry>
        </mxCell>
        <mxCell id="Uxrtn1q4JynT5MzSL2tQ-45" value="" style="endArrow=classicThin;html=1;rounded=0;entryX=1;entryY=0.5;entryDx=0;entryDy=0;exitX=0;exitY=0.5;exitDx=0;exitDy=0;endFill=1;" edge="1" parent="1" source="Uxrtn1q4JynT5MzSL2tQ-54" target="Uxrtn1q4JynT5MzSL2tQ-26">
          <mxGeometry width="50" height="50" relative="1" as="geometry">
            <mxPoint x="370" y="290" as="sourcePoint" />
            <mxPoint x="420" y="240" as="targetPoint" />
          </mxGeometry>
        </mxCell>
        <mxCell id="Uxrtn1q4JynT5MzSL2tQ-46" value="L + R" style="rounded=0;whiteSpace=wrap;html=1;fillColor=#dae8fc;strokeColor=#6c8ebf;" vertex="1" parent="1">
          <mxGeometry x="180" y="240" width="60" height="30" as="geometry" />
        </mxCell>
        <mxCell id="Uxrtn1q4JynT5MzSL2tQ-47" value="L + R" style="rounded=0;whiteSpace=wrap;html=1;fillColor=#7EA6E0;strokeColor=#6c8ebf;" vertex="1" parent="1">
          <mxGeometry x="240" y="240" width="60" height="30" as="geometry" />
        </mxCell>
        <mxCell id="Uxrtn1q4JynT5MzSL2tQ-49" value="dot product for CTCVR" style="rounded=1;whiteSpace=wrap;html=1;" vertex="1" parent="1">
          <mxGeometry x="350" y="240" width="70" height="30" as="geometry" />
        </mxCell>
        <mxCell id="Uxrtn1q4JynT5MzSL2tQ-50" value="" style="endArrow=classicThin;html=1;rounded=0;exitX=1;exitY=0.5;exitDx=0;exitDy=0;entryX=0;entryY=0.5;entryDx=0;entryDy=0;endFill=1;" edge="1" parent="1" source="Uxrtn1q4JynT5MzSL2tQ-48" target="Uxrtn1q4JynT5MzSL2tQ-49">
          <mxGeometry width="50" height="50" relative="1" as="geometry">
            <mxPoint x="380" y="290" as="sourcePoint" />
            <mxPoint x="430" y="240" as="targetPoint" />
          </mxGeometry>
        </mxCell>
        <mxCell id="Uxrtn1q4JynT5MzSL2tQ-51" value="" style="endArrow=classicThin;html=1;rounded=0;exitX=0;exitY=0.5;exitDx=0;exitDy=0;entryX=1;entryY=0.5;entryDx=0;entryDy=0;endFill=1;" edge="1" parent="1" source="Uxrtn1q4JynT5MzSL2tQ-30" target="Uxrtn1q4JynT5MzSL2tQ-49">
          <mxGeometry width="50" height="50" relative="1" as="geometry">
            <mxPoint x="380" y="290" as="sourcePoint" />
            <mxPoint x="430" y="240" as="targetPoint" />
          </mxGeometry>
        </mxCell>
        <mxCell id="Uxrtn1q4JynT5MzSL2tQ-52" value="" style="endArrow=none;html=1;rounded=0;dashed=1;dashPattern=1 2;endFill=0;entryX=1;entryY=1;entryDx=0;entryDy=0;" edge="1" parent="1" target="Uxrtn1q4JynT5MzSL2tQ-36">
          <mxGeometry width="50" height="50" relative="1" as="geometry">
            <mxPoint x="239.59" y="230" as="sourcePoint" />
            <mxPoint x="239.76" y="210" as="targetPoint" />
          </mxGeometry>
        </mxCell>
        <mxCell id="Uxrtn1q4JynT5MzSL2tQ-54" value="a(L + R)" style="rounded=0;whiteSpace=wrap;html=1;fillColor=#fff2cc;strokeColor=#d6b656;" vertex="1" parent="1">
          <mxGeometry x="470" y="170" width="60" height="30" as="geometry" />
        </mxCell>
        <mxCell id="Uxrtn1q4JynT5MzSL2tQ-55" value="b(L + R)" style="rounded=0;whiteSpace=wrap;html=1;fillColor=#FFD966;strokeColor=#d6b656;" vertex="1" parent="1">
          <mxGeometry x="530" y="170" width="60" height="30" as="geometry" />
        </mxCell>
        <mxCell id="Uxrtn1q4JynT5MzSL2tQ-56" value="" style="endArrow=none;html=1;rounded=0;dashed=1;dashPattern=1 2;endFill=0;entryX=1;entryY=1;entryDx=0;entryDy=0;" edge="1" parent="1">
          <mxGeometry width="50" height="50" relative="1" as="geometry">
            <mxPoint x="530" y="230" as="sourcePoint" />
            <mxPoint x="530.4100000000001" y="200" as="targetPoint" />
          </mxGeometry>
        </mxCell>
        <mxCell id="Uxrtn1q4JynT5MzSL2tQ-57" value="" style="endArrow=none;html=1;rounded=0;dashed=1;dashPattern=1 2;endFill=0;exitX=0.75;exitY=0;exitDx=0;exitDy=0;" edge="1" parent="1" source="Uxrtn1q4JynT5MzSL2tQ-11">
          <mxGeometry width="50" height="50" relative="1" as="geometry">
            <mxPoint x="219.83" y="340" as="sourcePoint" />
            <mxPoint x="270" y="360" as="targetPoint" />
          </mxGeometry>
        </mxCell>
        <mxCell id="Uxrtn1q4JynT5MzSL2tQ-58" value="" style="endArrow=none;html=1;rounded=0;dashed=1;dashPattern=1 2;endFill=0;exitX=0.75;exitY=0;exitDx=0;exitDy=0;" edge="1" parent="1">
          <mxGeometry width="50" height="50" relative="1" as="geometry">
            <mxPoint x="210" y="430" as="sourcePoint" />
            <mxPoint x="270" y="410" as="targetPoint" />
          </mxGeometry>
        </mxCell>
        <mxCell id="Uxrtn1q4JynT5MzSL2tQ-59" value="" style="endArrow=none;html=1;rounded=0;dashed=1;dashPattern=1 2;endFill=0;exitX=0.75;exitY=0;exitDx=0;exitDy=0;" edge="1" parent="1">
          <mxGeometry width="50" height="50" relative="1" as="geometry">
            <mxPoint x="210" y="480" as="sourcePoint" />
            <mxPoint x="270" y="460" as="targetPoint" />
          </mxGeometry>
        </mxCell>
        <mxCell id="Uxrtn1q4JynT5MzSL2tQ-60" value="" style="endArrow=none;html=1;rounded=0;dashed=1;dashPattern=1 2;endFill=0;exitX=0.75;exitY=0;exitDx=0;exitDy=0;" edge="1" parent="1">
          <mxGeometry width="50" height="50" relative="1" as="geometry">
            <mxPoint x="210" y="430" as="sourcePoint" />
            <mxPoint x="270" y="410" as="targetPoint" />
          </mxGeometry>
        </mxCell>
        <mxCell id="Uxrtn1q4JynT5MzSL2tQ-61" value="" style="endArrow=none;html=1;rounded=0;dashed=1;dashPattern=1 2;endFill=0;exitX=0.75;exitY=0;exitDx=0;exitDy=0;" edge="1" parent="1">
          <mxGeometry width="50" height="50" relative="1" as="geometry">
            <mxPoint x="500" y="380" as="sourcePoint" />
            <mxPoint x="560" y="360" as="targetPoint" />
          </mxGeometry>
        </mxCell>
        <mxCell id="Uxrtn1q4JynT5MzSL2tQ-62" value="" style="endArrow=none;html=1;rounded=0;dashed=1;dashPattern=1 2;endFill=0;exitX=0.75;exitY=0;exitDx=0;exitDy=0;" edge="1" parent="1">
          <mxGeometry width="50" height="50" relative="1" as="geometry">
            <mxPoint x="500" y="430" as="sourcePoint" />
            <mxPoint x="560" y="410" as="targetPoint" />
          </mxGeometry>
        </mxCell>
        <mxCell id="Uxrtn1q4JynT5MzSL2tQ-63" value="" style="endArrow=none;html=1;rounded=0;dashed=1;dashPattern=1 2;endFill=0;exitX=0.75;exitY=0;exitDx=0;exitDy=0;" edge="1" parent="1">
          <mxGeometry width="50" height="50" relative="1" as="geometry">
            <mxPoint x="500" y="480" as="sourcePoint" />
            <mxPoint x="560" y="460" as="targetPoint" />
          </mxGeometry>
        </mxCell>
      </root>
    </mxGraphModel>
  </diagram>
</mxfile>
